<?xml version="1.0" encoding="utf-8"?>
<!-- Generator: Adobe Illustrator 18.0.0, SVG Export Plug-In . SVG Version: 6.00 Build 0)  -->
<!DOCTYPE svg PUBLIC "-//W3C//DTD SVG 1.1//EN" "http://www.w3.org/Graphics/SVG/1.1/DTD/svg11.dtd">
<svg version="1.1" id="Layer_1" xmlns="http://www.w3.org/2000/svg" xmlns:xlink="http://www.w3.org/1999/xlink" x="0px" y="0px"
	 viewBox="0 0 512 512" enable-background="new 0 0 512 512" xml:space="preserve">
<g>
	<g>
		<g>
			<path d="M72.2,446.8c0.3-8.6,9.2-16.5,14.6-23.5c8-10.4,6.6-22.7,6.6-35c-2.5,2.5-5,5-7.5,7.5c7.2,0,14.4,0,21.6,0
				c-2.5-2.5-5-5-7.5-7.5c0,10.4-1.2,21.3,3.7,30.8c2,3.9,5.5,7.5,8.2,11c2.5,3.3,6,7.6,7.7,10.3c1.9,3.1,1.7,6.8,1.7,10.2
				c0,5,0,10,0,15c0,8.3,0,16.5,0,24.8c2.5-2.5,5-5,7.5-7.5c-21.4,0-42.7,0-64.1,0c-9.7,0-9.7,15,0,15c21.4,0,42.7,0,64.1,0
				c4.1,0,7.5-3.4,7.5-7.5c0-7.9,0-15.9,0-23.8c0-8.7,0.8-17.8-0.8-26.4c-1.1-5.8-4.9-10.3-8.3-14.8c-3.1-4-6.2-8.1-9.4-12.1
				c-4.4-5.7-2.7-17.3-2.7-25c0-4.1-3.4-7.5-7.5-7.5c-7.2,0-14.4,0-21.6,0c-4.1,0-7.5,3.4-7.5,7.5c0,4.4,0,8.8,0,13.1
				c0,4.8-0.6,9.2-3.1,12.4c-7.8,10-17.6,19.6-18.1,33C56.8,456.5,71.8,456.5,72.2,446.8L72.2,446.8z"/>
		</g>
	</g>
	<g>
		<g>
			<path d="M326.1,334.1c0,49,0,97.9,0,146.9c0,3.1,0,6.2,0,9.4c2.5-2.5,5-5,7.5-7.5c-48.9,0-97.9,0-146.8,0c-2.8,0-5.6,0-8.5,0
				c2.5,2.5,5,5,7.5,7.5c0-49,0-97.9,0-146.9c0-3.1,0-6.2,0-9.4c-2.5,2.5-5,5-7.5,7.5c48.9,0,97.9,0,146.8,0c2.8,0,5.6,0,8.5,0
				c9.7,0,9.7-15,0-15c-48.9,0-97.9,0-146.8,0c-2.8,0-5.6,0-8.5,0c-4.1,0-7.5,3.4-7.5,7.5c0,49,0,97.9,0,146.9c0,3.1,0,6.2,0,9.4
				c0,4.1,3.4,7.5,7.5,7.5c48.9,0,97.9,0,146.8,0c2.8,0,5.6,0,8.5,0c4.1,0,7.5-3.4,7.5-7.5c0-49,0-97.9,0-146.9c0-3.1,0-6.2,0-9.4
				C341.1,324.5,326.1,324.5,326.1,334.1z"/>
		</g>
	</g>
	<g>
		<g>
			<path d="M489,482.9c-48.9,0-97.9,0-146.8,0c-2.8,0-5.6,0-8.5,0c2.5,2.5,5,5,7.5,7.5c0-49,0-97.9,0-146.9c0-3.1,0-6.2,0-9.4
				c-2.5,2.5-5,5-7.5,7.5c48.9,0,97.9,0,146.8,0c2.8,0,5.6,0,8.5,0c-2.5-2.5-5-5-7.5-7.5c0,49,0,97.9,0,146.9c0,3.1,0,6.2,0,9.4
				c0,9.7,15,9.7,15,0c0-49,0-97.9,0-146.9c0-3.1,0-6.2,0-9.4c0-4.1-3.4-7.5-7.5-7.5c-48.9,0-97.9,0-146.8,0c-2.8,0-5.6,0-8.5,0
				c-4.1,0-7.5,3.4-7.5,7.5c0,49,0,97.9,0,146.9c0,3.1,0,6.2,0,9.4c0,4.1,3.4,7.5,7.5,7.5c48.9,0,97.9,0,146.8,0c2.8,0,5.6,0,8.5,0
				C498.6,497.9,498.6,482.9,489,482.9z"/>
		</g>
	</g>
	<g>
		<g>
			<path d="M170.8,177.9c0,49,0,97.9,0,146.9c0,3.1,0,6.2,0,9.4c2.5-2.5,5-5,7.5-7.5c-48.9,0-97.9,0-146.8,0c-2.8,0-5.6,0-8.5,0
				c2.5,2.5,5,5,7.5,7.5c0-49,0-97.9,0-146.9c0-3.1,0-6.2,0-9.4c-2.5,2.5-5,5-7.5,7.5c48.9,0,97.9,0,146.8,0c2.8,0,5.6,0,8.5,0
				c9.7,0,9.7-15,0-15c-48.9,0-97.9,0-146.8,0c-2.8,0-5.6,0-8.5,0c-4.1,0-7.5,3.4-7.5,7.5c0,49,0,97.9,0,146.9c0,3.1,0,6.2,0,9.4
				c0,4.1,3.4,7.5,7.5,7.5c48.9,0,97.9,0,146.8,0c2.8,0,5.6,0,8.5,0c4.1,0,7.5-3.4,7.5-7.5c0-49,0-97.9,0-146.9c0-3.1,0-6.2,0-9.4
				C185.8,168.2,170.8,168.2,170.8,177.9z"/>
		</g>
	</g>
	<g>
		<g>
			<path d="M178.4,170.4c-48.9,0-97.9,0-146.8,0c-2.8,0-5.6,0-8.5,0c2.5,2.5,5,5,7.5,7.5c0-49,0-97.9,0-146.9c0-3.1,0-6.2,0-9.4
				c-2.5,2.5-5,5-7.5,7.5c48.9,0,97.9,0,146.8,0c2.8,0,5.6,0,8.5,0c-2.5-2.5-5-5-7.5-7.5c0,49,0,97.9,0,146.9c0,3.1,0,6.2,0,9.4
				c0,9.7,15,9.7,15,0c0-49,0-97.9,0-146.9c0-3.1,0-6.2,0-9.4c0-4.1-3.4-7.5-7.5-7.5c-48.9,0-97.9,0-146.8,0c-2.8,0-5.6,0-8.5,0
				c-4.1,0-7.5,3.4-7.5,7.5c0,49,0,97.9,0,146.9c0,3.1,0,6.2,0,9.4c0,4.1,3.4,7.5,7.5,7.5c48.9,0,97.9,0,146.8,0c2.8,0,5.6,0,8.5,0
				C188,185.4,188,170.4,178.4,170.4z"/>
		</g>
	</g>
	<g>
		<g>
			<path d="M333.7,326.6c-48.9,0-97.9,0-146.8,0c-2.8,0-5.6,0-8.5,0c2.5,2.5,5,5,7.5,7.5c0-49,0-97.9,0-146.9c0-3.1,0-6.2,0-9.4
				c-2.5,2.5-5,5-7.5,7.5c48.9,0,97.9,0,146.8,0c2.8,0,5.6,0,8.5,0c-2.5-2.5-5-5-7.5-7.5c0,49,0,97.9,0,146.9c0,3.1,0,6.2,0,9.4
				c0,9.7,15,9.7,15,0c0-49,0-97.9,0-146.9c0-3.1,0-6.2,0-9.4c0-4.1-3.4-7.5-7.5-7.5c-48.9,0-97.9,0-146.8,0c-2.8,0-5.6,0-8.5,0
				c-4.1,0-7.5,3.4-7.5,7.5c0,49,0,97.9,0,146.9c0,3.1,0,6.2,0,9.4c0,4.1,3.4,7.5,7.5,7.5c48.9,0,97.9,0,146.8,0c2.8,0,5.6,0,8.5,0
				C343.3,341.6,343.3,326.6,333.7,326.6z"/>
		</g>
	</g>
	<g>
		<g>
			<path d="M116.4,294.6c0,13.2,0,26.4,0,39.6c2.5-2.5,5-5,7.5-7.5c-33.6,0-67.3,0-100.9,0c2.5,2.5,5,5,7.5,7.5
				c0-13.2,0-26.4,0-39.6c-2.5,2.5-5,5-7.5,7.5c33.6,0,67.3,0,100.9,0c9.7,0,9.7-15,0-15c-33.6,0-67.3,0-100.9,0
				c-4.1,0-7.5,3.4-7.5,7.5c0,13.2,0,26.4,0,39.6c0,4.1,3.4,7.5,7.5,7.5c33.6,0,67.3,0,100.9,0c4.1,0,7.5-3.4,7.5-7.5
				c0-13.2,0-26.4,0-39.6C131.4,284.9,116.4,284.9,116.4,294.6z"/>
		</g>
	</g>
	<g>
		<g>
			<path d="M96.7,287.1c-24.6,0-49.1,0-73.7,0c2.5,2.5,5,5,7.5,7.5c0-13.2,0-26.4,0-39.6c-2.5,2.5-5,5-7.5,7.5c24.6,0,49.1,0,73.7,0
				c-2.5-2.5-5-5-7.5-7.5c0,13.2,0,26.4,0,39.6c0,9.7,15,9.7,15,0c0-13.2,0-26.4,0-39.6c0-4.1-3.4-7.5-7.5-7.5
				c-24.6,0-49.1,0-73.7,0c-4.1,0-7.5,3.4-7.5,7.5c0,13.2,0,26.4,0,39.6c0,4.1,3.4,7.5,7.5,7.5c24.6,0,49.1,0,73.7,0
				C106.4,302.1,106.4,287.1,96.7,287.1z"/>
		</g>
	</g>
	<g>
		<g>
			<g>
				<g>
					<path d="M128.8,482.9c-21.4,0-42.7,0-64.1,0c-9.7,0-9.7,15,0,15c21.4,0,42.7,0,64.1,0C138.5,497.9,138.5,482.9,128.8,482.9
						L128.8,482.9z"/>
				</g>
			</g>
		</g>
	</g>
	<g>
		<g>
			<path d="M170.8,334.1c0,49,0,97.9,0,146.9c0,3.1,0,6.2,0,9.4c2.5-2.5,5-5,7.5-7.5c-48.9,0-97.9,0-146.8,0c-2.8,0-5.6,0-8.5,0
				c2.5,2.5,5,5,7.5,7.5c0-49,0-97.9,0-146.9c0-3.1,0-6.2,0-9.4c-2.5,2.5-5,5-7.5,7.5c48.9,0,97.9,0,146.8,0c2.8,0,5.6,0,8.5,0
				c9.7,0,9.7-15,0-15c-48.9,0-97.9,0-146.8,0c-2.8,0-5.6,0-8.5,0c-4.1,0-7.5,3.4-7.5,7.5c0,49,0,97.9,0,146.9c0,3.1,0,6.2,0,9.4
				c0,4.1,3.4,7.5,7.5,7.5c48.9,0,97.9,0,146.8,0c2.8,0,5.6,0,8.5,0c4.1,0,7.5-3.4,7.5-7.5c0-49,0-97.9,0-146.9c0-3.1,0-6.2,0-9.4
				C185.8,324.5,170.8,324.5,170.8,334.1z"/>
		</g>
	</g>
	<g>
		<g>
			<path d="M57.2,446.8c0,14.5,0,29.1,0,43.6c0,9.7,15,9.7,15,0c0-14.5,0-29.1,0-43.6C72.2,437.2,57.2,437.2,57.2,446.8L57.2,446.8z
				"/>
		</g>
	</g>
	<g>
		<g>
			<path d="M293.9,326.6c-25.3,0-50.6,0-75.9,0c2.5,2.5,5,5,7.5,7.5c0-27.6,0-55.2,0-82.9c-2.5,2.5-5,5-7.5,7.5
				c25.3,0,50.6,0,75.9,0c-2.5-2.5-5-5-7.5-7.5c0,27.6,0,55.2,0,82.9c0,9.7,15,9.7,15,0c0-27.6,0-55.2,0-82.9c0-4.1-3.4-7.5-7.5-7.5
				c-25.3,0-50.6,0-75.9,0c-4.1,0-7.5,3.4-7.5,7.5c0,27.6,0,55.2,0,82.9c0,4.1,3.4,7.5,7.5,7.5c25.3,0,50.6,0,75.9,0
				C303.6,341.6,303.6,326.6,293.9,326.6z"/>
		</g>
	</g>
	<g>
		<g>
			<path d="M248.5,251.3c0,27.6,0,55.2,0,82.9c0,9.7,15,9.7,15,0c0-27.6,0-55.2,0-82.9C263.5,241.6,248.5,241.6,248.5,251.3
				L248.5,251.3z"/>
		</g>
	</g>
	<g>
		<g>
			<path d="M218.1,300.2c25.3,0,50.6,0,75.9,0c9.7,0,9.7-15,0-15c-25.3,0-50.6,0-75.9,0C208.4,285.2,208.4,300.2,218.1,300.2
				L218.1,300.2z"/>
		</g>
	</g>
	<g>
		<g>
			<path d="M272.3,243.8c-5.4,0-10.9,0-16.3,0c2.5,2.5,5,5,7.5,7.5c0-3.9,0-7.7,0-11.6c0-4-0.7-8.3,4.1-9.6c3.8-1,8.4,0.2,9.5,4.1
				C278.1,238,276.9,243.5,272.3,243.8c-9.6,0.5-9.7,15.5,0,15c12.6-0.7,19.8-10.2,19.8-22.3c0-12-8.2-21.4-20.6-21.4
				c-11.3,0-22.3,5.8-23,18.4c-0.3,5.9-0.1,11.9-0.1,17.8c0,4.1,3.4,7.5,7.5,7.5c5.4,0,10.9,0,16.3,0
				C282,258.8,282,243.8,272.3,243.8z"/>
		</g>
	</g>
	<g>
		<g>
			<path d="M256.1,243.8c-5.2,0-10.5,0-15.7,0c-5.3,0-7.6-7.9-4.4-11.8c3.2-3.9,12.6-2.5,12.6,3.2c0,5.4,0,10.8,0,16.1
				c0,9.7,15,9.7,15,0c0-7.8,1.6-18.1-2.1-25.3c-6.7-12.9-24.7-14.1-35.2-5.6c-5.3,4.4-6.2,11.4-6.2,17.8c0,7.6,3.5,13.8,9.8,17.9
				c7,4.6,18.4,2.7,26.3,2.7C265.8,258.8,265.8,243.8,256.1,243.8z"/>
		</g>
	</g>
	<g>
		<g>
			<path d="M489,482.9c-33.8,0-67.5,0-101.3,0c2.5,2.5,5,5,7.5,7.5c0-37.9,0-75.9,0-113.8c-2.5,2.5-5,5-7.5,7.5
				c33.8,0,67.5,0,101.3,0c-2.5-2.5-5-5-7.5-7.5c0,37.9,0,75.9,0,113.8c0,9.7,15,9.7,15,0c0-37.9,0-75.9,0-113.8
				c0-4.1-3.4-7.5-7.5-7.5c-33.8,0-67.5,0-101.3,0c-4.1,0-7.5,3.4-7.5,7.5c0,37.9,0,75.9,0,113.8c0,4.1,3.4,7.5,7.5,7.5
				c33.8,0,67.5,0,101.3,0C498.6,497.9,498.6,482.9,489,482.9z"/>
		</g>
	</g>
	<g>
		<g>
			<path d="M430.8,376.7c0,37.9,0,75.8,0,113.8c0,9.7,15,9.7,15,0c0-37.9,0-75.8,0-113.8C445.8,367,430.8,367,430.8,376.7
				L430.8,376.7z"/>
		</g>
	</g>
	<g>
		<g>
			<path d="M387.7,482.9c-18,0-36,0-54,0c2.5,2.5,5,5,7.5,7.5c0-26,0-52.1,0-78.1c-2.5,2.5-5,5-7.5,7.5c18,0,36,0,54,0
				c-2.5-2.5-5-5-7.5-7.5c0,26,0,52.1,0,78.1c0,9.7,15,9.7,15,0c0-26,0-52.1,0-78.1c0-4.1-3.4-7.5-7.5-7.5c-18,0-36,0-54,0
				c-4.1,0-7.5,3.4-7.5,7.5c0,26,0,52.1,0,78.1c0,4.1,3.4,7.5,7.5,7.5c18,0,36,0,54,0C397.4,497.9,397.4,482.9,387.7,482.9z"/>
		</g>
	</g>
</g>
</svg>
